<?xml version="1.0"?><svg xmlns="http://www.w3.org/2000/svg" version="1.0" viewBox="4 4 66 105"><defs><radialGradient id="r"><stop offset="0" stop-color="#ed5f32"/><stop offset="1" stop-color="#ad4717"/></radialGradient><radialGradient id="g"><stop offset="0" stop-color="#2afa22"/><stop offset="1" stop-color="#00c200"/></radialGradient><radialGradient id="b"><stop offset="0" stop-color="#4f5dfa"/><stop offset="1" stop-color="#0222cd"/></radialGradient></defs><path fill="url(#b)" stroke="#000" stroke-width="1" d="M25 42.1c10.4 18.7 20.6 34.5 13.7 62.5 11.6 3.8 11.5-11.7 24-10.6 2-28.2-15.1-28.2-15.4-52.7 0-1.2-21.1.8-22.3.8z"/><path fill="url(#g)" stroke="#000" stroke-width="1" d="M25 42.1c7.2 21.8-8.1 38.7-3.2 58.6 10.3-9.7 22.6.3 27.6 6.6 4.6-32.4-6.7-39.7-2.1-66 .2-1.2-21.1.8-22.3.8z"/><path fill="url(#r)" stroke="#000" stroke-width="1" d="M25 42.1c1.3 20-20.8 30-19.5 53.2 14-2.7 20.4 8.5 28.6 6.8-3.2-30.4 9.6-58 9.6-60.3 0-1.2-17.5.3-18.7.3z"/><circle cx="37" cy="37" r="32" fill="#e8f0f0" stroke="#000" stroke-width="2"/><path fill="none" stroke="#fff" stroke-linecap="round" stroke-opacity=".7" stroke-width="3.7" d="M57.3 15.5L12.3 53"/><path fill="none" stroke="#fff" stroke-linecap="round" stroke-opacity=".7" stroke-width="1.5" d="M62.3 19l-47 39.6"/><path d="M23.6 26.3q4.8-13 14-13 5.2 0 8.5 3.3 3.4 3.3 3.4 8.4 0 7-7.3 14l-10.4 9.8h9.7q4.9 0 6.3-.8 1.4-.7 2.8-4.2h1.6l-3 13.5H22.8v-1.5q10.9-11.6 14.5-17.1 3.6-5.6 3.6-10 0-3.3-2.1-5.7-2.2-2.4-5.5-2.4-5 0-7.9 5.7z"/></svg>
