<?xml version="1.0" encoding="UTF-8"?>
<svg xmlns="http://www.w3.org/2000/svg" version="1.1" viewBox="0 0 20 20">
<g style="fill:#ffffff;fill-opacity:1;fill-rule:evenodd;stroke:#000000;stroke-width:.9;stroke-linecap:butt;stroke-linejoin:miter;stroke-miterlimit:4;stroke-dasharray:none;stroke-opacity:1">
<path d="M 11.2,3 H 2.5 c -1,0 -2,1 -2,2 v 5 c 0,1 1,2 2,2 h 1 c 0.5,2 -0.5,4 -1.5,5 2.1,0 4.5,-1.8 4.5,-5 h 5 c 1,0 2,-0.9 2,-2 v -5 c 0,-1.1 -1,-2 -2,-2 z" />
<path d="m 10,6 h 7 c 1,0 2,1 2,2 v 4 c 0,1 -1,2 -2,2 h -2 c 0,2 0,3 1,4 -2,0 -4,-1 -4,-4 h -2 c -1,0 -2,-1 -2,-2 v -4 c 0,-1 1,-2 2,-2 z" />
</g>
</svg>
